<?xml version="1.0" encoding="utf-8"?>
<!-- Generator: Adobe Illustrator 25.2.0, SVG Export Plug-In . SVG Version: 6.00 Build 0)  -->
<svg version="1.1" id="Layer_1" xmlns="http://www.w3.org/2000/svg" xmlns:xlink="http://www.w3.org/1999/xlink" x="0px" y="0px"
	 viewBox="0 0 200 200" enable-background="new 0 0 200 200" xml:space="preserve">
<path fill="#FF1A39" stroke="#000000" stroke-miterlimit="10" d="M29.2,72.49c-20.25-0.92-26.32-38.9,0-38.9
	s-3.09,27.23,31.58,31.58c34.67,4.35,31.29-83.81,69.57-45.54s79.72,39.65,46.45,62.01c-32.38,21.76-46.19-46.43-63.16-23.34
	c-24.42,33.24,37.65,29.56,47.14,75.51c3.88,18.79-46.86,43.83-46.91-0.92c-0.05-46.12-42.45-24.71-44.39-13.27
	c-1.95,11.44,45.31,39.36,29.18,57.32c-14.33,15.96-78.95,11.36-84.1-29.63c-4.3-34.25,21.28-4.58,31.58-34.78
	C54.23,88.81,49.46,73.41,29.2,72.49z"/>
</svg>
